<svg xmlns="http://www.w3.org/2000/svg" viewBox="0 0 512 512" role="img" aria-label="Мафия">
  <rect width="512" height="512" fill="#faf6ed"/>
  <g transform="translate(112 112) scale(12)" fill="#c8102e">
    <path d="M12 1.6c-.9 1.6-1.5 3-1.5 4.5 0 1.1.3 2 .8 2.8-.9-.1-1.7-.6-2.3-1.4-.5.8-.7 1.7-.7 2.5 0 1.5.9 2.7 2.2 3.1-.8.5-1.4 1.2-1.6 2.1l-.6 2.1c-.1.4.3.8.7.7l2.1-.6c.3-.1.6-.2.9-.4v4.9l-1.8-.9c-.3-.2-.7.1-.6.5l.6 2c.1.3.4.5.7.5h1c.3 0 .6-.2.7-.5l.6-2c.1-.4-.3-.7-.6-.5l-1.8.9v-4.9c.3.2.6.3.9.4l2.1.6c.4.1.8-.3.7-.7l-.6-2.1c-.2-.9-.8-1.6-1.6-2.1 1.3-.4 2.2-1.6 2.2-3.1 0-.8-.2-1.7-.7-2.5-.6.8-1.4 1.3-2.3 1.4.5-.8.8-1.7.8-2.8 0-1.5-.6-2.9-1.5-4.5z"/>
    <rect x="5.8" y="10.8" width="12.4" height="1.4" rx="0.2"/>
  </g>
</svg>
